<svg height="18" width="18" viewBox="0 0 18 18" xmlns="http://www.w3.org/2000/svg" class="size-3.5 text-neutral-600"><path d="m8.095 7.778 7.314 2.51a.25.25 0 0 1 .007.47l-3.279 1.233a.25.25 0 0 0-.146.146l-1.233 3.279a.25.25 0 0 1-.47-.007l-2.51-7.314a.25.25 0 0 1 .318-.318Zm3.936 4.253 4.212 4.212M7.75 1.75v2m4.243-.243-1.415 1.415m-7.071 7.071 1.415-1.415M1.75 7.75h2m-.243-4.243 1.415 1.415" fill="none" stroke="currentColor" stroke-linecap="round" stroke-linejoin="round" stroke-width="1.5"/></svg>