<svg height="18" width="18" viewBox="0 0 18 18" xmlns="http://www.w3.org/2000/svg" class="size-3.5 text-neutral-600"><g fill="currentColor"><path d="M12.188 16.484a4.26 4.26 0 0 1-3.026-1.252l-2.175-2.175a4.29 4.29 0 0 1 0-6.061 4.3 4.3 0 0 1 1.19-.846.75.75 0 1 1 .646 1.354 2.8 2.8 0 0 0-.766.543 2.793 2.793 0 0 0-.01 3.95l2.175 2.175a2.79 2.79 0 0 0 3.939 0 2.79 2.79 0 0 0 .01-3.949l-.931-.931a.75.75 0 1 1 1.061-1.061l.931.931a4.292 4.292 0 0 1-3.044 7.322"/><path d="M9.501 11.923a.75.75 0 0 1-.323-1.427q.426-.204.766-.543a2.793 2.793 0 0 0 .01-3.95L7.779 3.828a2.79 2.79 0 0 0-3.939 0 2.79 2.79 0 0 0-.01 3.949l.931.931A.75.75 0 1 1 3.7 9.769l-.931-.931a4.29 4.29 0 0 1 0-6.06c1.682-1.681 4.4-1.682 6.07-.01l2.175 2.175a4.29 4.29 0 0 1 0 6.061 4.3 4.3 0 0 1-1.19.846.74.74 0 0 1-.323.073"/></g></svg>